<?xml version="1.0" encoding="UTF-8" standalone="no"?>
<!DOCTYPE svg PUBLIC "-//W3C//DTD SVG 1.1//EN" "http://www.w3.org/Graphics/SVG/1.1/DTD/svg11.dtd">
<svg width="100%" height="100%" viewBox="0 0 255 255" version="1.1" xmlns="http://www.w3.org/2000/svg" xmlns:xlink="http://www.w3.org/1999/xlink" xml:space="preserve" xmlns:serif="http://www.serif.com/" style="fill-rule:evenodd;clip-rule:evenodd;stroke-linejoin:round;stroke-miterlimit:2;">
    <g transform="matrix(1,0,0,1,0.00037607,-18.3183)">
        <g transform="matrix(1.33333,0,0,1.33333,-218.283,-988.207)">
            <g transform="matrix(0.787059,0,0,0.787059,-60.0425,299.416)">
                <g transform="matrix(0.75,0,0,5.25,44.1222,-5126.85)">
                    <rect x="379.056" y="1095.18" width="29.415" height="29.415" style="fill:rgb(59,151,211);"/>
                </g>
                <g transform="matrix(0.75,0,0,3.75,88.2445,-3439.96)">
                    <rect x="379.056" y="1095.18" width="29.415" height="29.415" style="fill:rgb(59,151,211);"/>
                </g>
                <g transform="matrix(0.75,0,0,2.25,132.367,-1753.07)">
                    <rect x="379.056" y="1095.18" width="29.415" height="29.415" style="fill:rgb(59,151,211);"/>
                </g>
                <g transform="matrix(0.75,0,0,4.5,176.489,-4283.41)">
                    <rect x="379.056" y="1095.18" width="29.415" height="29.415" style="fill:rgb(59,151,211);"/>
                </g>
                <g transform="matrix(0.75,0,0,0.75,0,0)">
                    <path d="M408.471,889.274L379.056,889.274L379.056,801.028C379.056,793.227 382.155,785.746 387.671,780.23C393.187,774.714 400.669,771.615 408.47,771.615L496.716,771.615L496.716,801.03L408.471,801.03L408.471,889.274Z" style="fill:white;"/>
                </g>
                <g transform="matrix(0.75,0,0,-0.75,4.26326e-14,1400.09)">
                    <path d="M408.471,889.274L379.056,889.274L379.056,801.028C379.056,793.227 382.155,785.746 387.671,780.23C393.187,774.714 400.669,771.615 408.47,771.615L496.716,771.615L496.716,801.03L408.471,801.03L408.471,889.274Z" style="fill:white;"/>
                </g>
                <g transform="matrix(-0.75,0,0,-0.75,811.257,1400.09)">
                    <path d="M408.471,889.274L379.056,889.274L379.056,801.028C379.056,793.227 382.155,785.746 387.671,780.23C393.187,774.714 400.669,771.615 408.47,771.615L496.716,771.615L496.716,801.03L408.471,801.03L408.471,889.274Z" style="fill:white;"/>
                </g>
                <g transform="matrix(-0.75,0,0,0.75,811.257,-1.7053e-13)">
                    <path d="M408.471,889.274L379.056,889.274L379.056,801.028C379.056,793.227 382.155,785.746 387.671,780.23C393.187,774.714 400.669,771.615 408.47,771.615L496.716,771.615L496.716,801.03L408.471,801.03L408.471,889.274Z" style="fill:white;"/>
                </g>
            </g>
        </g>
    </g>
</svg>
